:SAMPLES-PER-SECOND 30
:FULLY-SPECIFIED
:DEGREES
124
root  -2.83657 40.5791 2.48675 148.785 -70.4023 -159.051
RightUpLeg  3.80051 -15.3227 -1.59928
RightLeg  15.1216 8.99417 2.79024
RightFoot  2.59808 -1.75509 14.4292
RightToes  -3.1126e-008 1.75238e-005 3.56266e-009
Spine  -6.94245 2.96969 -1.40106
Spine1  25.068 5.44132 -6.9459
HEad  2.72452 -34.9499 -6.67087
LeftShoulder1  2.17711 -4.73556 -19.969
LeftArm  -19.5411 1.51947 -53.7294
LeftForeArm  52.1613 -22.2291 -2.71638
LeftHand  -0.804155 -2.33489 12.2764
RightShoulder  1.41835 4.42329 10.6932
RightArm  -57.0864 -3.58014 5.81751
RightForeArm  32.5084 73.7273 39.1405
RightHand  0.663353 -2.72308 29.5718
LeftUpLeg  11.1341 6.16591 6.14992
LeftLeg  11.1968 24.8145 4.83097
LeftFoot  -9.33369 0.0738932 -1.01733
LeftToes  4.78349e-008 1.46828e-008 1.33736e-009
125
root  -3.05904 40.6289 2.63931 149.849 -69.6204 -159.149
RightUpLeg  2.92673 -15.1721 -1.50714
RightLeg  15.0205 9.7522 3.02944
RightFoot  3.30755 -1.93631 15.1632
RightToes  -3.1126e-008 1.75238e-005 3.56266e-009
Spine  -7.53151 3.00016 -0.512846
Spine1  22.7316 5.1693 -6.84359
HEad  3.41358 -35.7956 -7.21189
LeftShoulder1  2.13114 -4.64903 -19.669
LeftArm  -16.0142 3.02983 -54.605
LeftForeArm  50.402 -25.0037 -2.82548
LeftHand  -0.600512 -1.93347 9.62439
RightShoulder  1.50299 4.66895 11.2525
RightArm  -56.6921 -1.8218 4.48833
RightForeArm  25.9561 74.2474 43.0592
RightHand  0.927242 -1.36756 26.9035
LeftUpLeg  11.0954 5.96782 5.88485
LeftLeg  9.86098 25.9967 4.37819
LeftFoot  -9.03847 0.0719352 -0.883074
LeftToes  4.78349e-008 1.46828e-008 1.33736e-009
126
root  -3.26998 40.6423 2.81165 152.123 -68.5716 -160.328
RightUpLeg  1.53962 -15.0853 -1.57094
RightLeg  15.3696 10.86 3.31832
RightFoot  3.70866 -2.03417 15.5061
RightToes  -3.1126e-008 1.75238e-005 3.56266e-009
Spine  -8.52588 3.18057 -0.0973774
Spine1  20.8972 4.95915 -6.33786
HEad  3.13506 -35.9393 -6.98146
LeftShoulder1  2.13604 -4.79346 -19.2336
LeftArm  -14.7456 6.2747 -55.8387
LeftForeArm  49.2304 -31.0263 -4.10546
LeftHand  -0.333971 -1.43043 5.93745
RightShoulder  1.50304 4.77895 10.9747
RightArm  -58.1557 1.09897 3.45629
RightForeArm  18.7803 73.3736 41.2665
RightHand  1.21506 0.86825 22.4087
LeftUpLeg  10.8044 5.63052 5.15866
LeftLeg  8.6862 27.8227 4.05135
LeftFoot  -8.71749 0.067336 -0.650761
LeftToes  4.78349e-008 1.46828e-008 1.33736e-009
127
root  -3.46945 40.6293 2.97387 154.033 -67.6951 -161.409
RightUpLeg  0.438172 -15.3013 -1.82161
RightLeg  15.8198 11.9005 3.63976
RightFoot  3.70658 -2.10731 16.0519
RightToes  -3.1126e-008 1.75238e-005 3.56266e-009
Spine  -9.26288 3.31442 0.42331
Spine1  19.5157 4.8792 -6.24866
HEad  1.8606 -36.2871 -4.77151
LeftShoulder1  1.98825 -4.46464 -18.3946
LeftArm  -13.4211 8.53478 -57.6728
LeftForeArm  45.4395 -37.3956 -5.86425
LeftHand  -0.16935 -2.03607 2.78999
RightShoulder  1.3995 4.53998 10.1484
RightArm  -60.0115 3.71705 2.75905
RightForeArm  10.6757 71.7802 37.4938
RightHand  1.0349 1.87772 16.1114
LeftUpLeg  10.5714 5.35378 4.46291
LeftLeg  7.90098 29.3001 3.79099
LeftFoot  -8.65061 0.0662362 -0.607387
LeftToes  4.78349e-008 1.46828e-008 1.33736e-009
128
root  -3.65004 40.5964 3.12716 155.443 -67.4264 -162.382
RightUpLeg  -0.0398436 -15.6178 -2.40088
RightLeg  16.101 12.6125 3.90349
RightFoot  3.27549 -2.06284 16.166
RightToes  -3.1126e-008 1.75238e-005 3.56266e-009
Spine  -9.49705 3.43733 0.829631
Spine1  18.2515 4.97942 -6.61015
HEad  -0.260669 -37.303 -1.94447
LeftShoulder1  1.93574 -4.54721 -17.3889
LeftArm  -9.95241 10.575 -58.5056
LeftForeArm  36.7801 -45.831 -8.95809
LeftHand  0.0527323 -1.43802 -0.814286
RightShoulder  1.31181 4.29587 9.48485
RightArm  -61.5562 4.82863 1.34014
RightForeArm  4.47299 69.5372 32.7845
RightHand  0.691747 1.44419 11.6241
LeftUpLeg  10.6037 4.94631 3.60851
LeftLeg  7.1513 30.3318 3.52938
LeftFoot  -8.60406 0.0650017 -0.558
LeftToes  4.78349e-008 1.46828e-008 1.33736e-009
129
root  -3.76227 40.5475 3.26391 157.18 -67.6449 -163.793
RightUpLeg  -0.592762 -15.29 -3.13618
RightLeg  16.539 12.3247 3.89602
RightFoot  2.28068 -1.97716 16.5781
RightToes  -3.1126e-008 1.75238e-005 3.56266e-009
Spine  -9.49389 3.49634 0.481069
Spine1  17.3127 5.07765 -6.76834
HEad  -3.41552 -38.8148 1.97739
LeftShoulder1  1.78886 -4.24148 -16.3781
LeftArm  -4.99453 9.81027 -58.7949
LeftForeArm  25.4799 -54.0841 -13.4551
LeftHand  0.186994 -0.547758 -3.56638
RightShoulder  1.11429 3.62221 8.17587
RightArm  -63.1316 5.12071 0.384562
RightForeArm  1.87382 66.3129 27.1778
RightHand  0.530579 1.90458 8.28987
LeftUpLeg  10.3122 4.56113 2.59704
LeftLeg  6.95584 30.8694 3.33106
LeftFoot  -8.68042 0.0618472 -0.411679
LeftToes  4.78349e-008 1.46828e-008 1.33736e-009
